<?xml version="1.0" encoding="UTF-8"?>
<svg width="130px" height="36px" viewBox="0 0 130 36" version="1.1" xmlns="http://www.w3.org/2000/svg" xmlns:xlink="http://www.w3.org/1999/xlink">
    <title>68362EA8-A5E3-4618-B765-1D7DB8664F80</title>
    <defs>
        <polygon id="path-1" points="0.289260663 0.226368548 7.35764312 0.226368548 7.35764312 3.67830514 0.289260663 3.67830514"></polygon>
        <polygon id="path-3" points="3.13357884e-05 0 34.4693986 0 34.4693986 35.1553263 3.13357884e-05 35.1553263"></polygon>
    </defs>
    <g id="Rank-Tracker" stroke="none" stroke-width="1" fill="none" fill-rule="evenodd">
        <g id="rt_projects_upgrade" transform="translate(-24.000000, -24.000000)">
            <g id="components/menubar/menubar/ranktracker">
                <g id="Group-2" transform="translate(0.000000, 24.000000)">
                    <g id="Group">
                        <g id="Group-17" transform="translate(24.000000, 0.000000)">
                            <path d="M54.0219905,11.2599097 L53.8092205,15.1953923 L52.9280581,15.1953923 C49.2213477,15.1953923 47.5198144,17.519481 47.5198144,21.8269712 L47.5198144,26.8161557 L43.5091468,26.8161557 L43.5091468,11.3529116 L47.5198144,11.3529116 L47.5198144,14.1726909 C48.7350163,12.3752933 50.497341,11.1359072 52.9584538,11.1359072 C53.3535981,11.1359072 53.6572419,11.1359072 54.0219905,11.2599097" id="Fill-1" fill="#FFFFFF"></path>
                            <path d="M67.6334736,19.1001299 C67.6334736,16.2493499 65.4763179,14.4516327 63.3191622,14.4516327 C60.8884451,14.4516327 59.065329,16.2493499 59.065329,19.1001299 C59.065329,21.9512294 60.8884451,23.7173068 63.3191622,23.7173068 C65.4763179,23.7173068 67.6334736,21.9512294 67.6334736,19.1001299 L67.6334736,19.1001299 Z M71.6444545,26.8164114 L67.6334736,26.8164114 L67.6334736,25.6077063 C66.3577936,26.6610886 64.6863427,27.2811013 62.6203742,27.2811013 C58.7616852,27.2811013 55.1762443,23.9653119 55.1762443,19.1001299 C55.1762443,14.2346283 58.7616852,10.8881578 62.6203742,10.8881578 C64.6863427,10.8881578 66.3577936,11.5078509 67.6334736,12.5922339 L67.6334736,11.3528477 L71.6444545,11.3528477 L71.6444545,26.8164114 Z" id="Fill-3" fill="#FFFFFF"></path>
                            <path d="M89.0271997,17.3955744 L89.0271997,26.8162516 L85.0165322,26.8162516 L85.0165322,18.2632725 C85.0165322,16.0941869 83.8010169,14.6377963 81.9475051,14.6377963 C79.6690799,14.6377963 78.1800032,16.1868692 78.1800032,19.9676682 L78.1800032,26.8162516 L74.1693357,26.8162516 L74.1693357,11.3530075 L78.1800032,11.3530075 L78.1800032,12.7473968 C79.3651227,11.5386917 80.9450732,10.887998 82.9502503,10.887998 C86.5964826,10.887998 89.0271997,13.5530937 89.0271997,17.3955744" id="Fill-5" fill="#FFFFFF"></path>
                            <polygon id="Fill-7" fill="#FFFFFF" points="102.21424 26.6929841 96.2591863 20.6500977 95.5603983 20.6500977 95.5603983 26.6929841 91.5497307 26.6929841 91.5497307 4.38115663 95.5603983 4.38115663 95.5603983 16.6216132 96.2895821 16.6216132 101.727908 11.22974 106.77203 11.22974 99.4497963 18.6360152 107.561692 26.6929841"></polygon>
                            <polygon id="Fill-9" fill="#FFFFFF" points="122.237025 26.6929841 108.776737 26.6929841 108.776737 24.0278884 116.919342 14.5765301 108.989194 14.5765301 108.989194 11.22974 121.872276 11.22974 121.872276 13.9565174 113.729672 23.346194 122.237025 23.346194"></polygon>
                            <g id="Group-13" transform="translate(121.582859, 4.154724)">
                                <mask id="mask-2" fill="white">
                                    <use xlink:href="#path-1"></use>
                                </mask>
                                <g id="Clip-12"></g>
                                <path d="M7.11043509,3.67830514 L7.11043509,0.770957007 L5.66554188,3.65177882 L5.47031992,3.65177882 L4.02511336,0.770957007 L4.02511336,3.67830514 L3.77787399,3.67830514 L3.77787399,0.226368548 L4.02511336,0.226368548 L5.57435474,3.26666785 L7.12328276,0.226368548 L7.35767446,0.226368548 L7.35767446,3.67830514 L7.11043509,3.67830514 Z M1.83818868,0.452002029 L1.83818868,3.67830514 L1.57810164,3.67830514 L1.57810164,0.452002029 L0.289260663,0.452002029 L0.289260663,0.226368548 L3.12702966,0.226368548 L3.12702966,0.452002029 L1.83818868,0.452002029 Z" id="Fill-11" fill="#FFFFFF" mask="url(#mask-2)"></path>
                            </g>
                            <g id="Group-16">
                                <mask id="mask-4" fill="white">
                                    <use xlink:href="#path-3"></use>
                                </mask>
                                <g id="Clip-15"></g>
                                <path d="M23.1634461,24.490469 C23.1634461,25.7816294 22.1356323,26.8298983 20.8665328,26.8298983 C19.600567,26.8298983 18.5727531,25.7816294 18.5727531,24.490469 L18.5727531,15.9253453 L10.4567839,15.9253453 C9.1876845,15.9253453 8.16300422,14.8770765 8.16300422,13.585916 C8.16300422,12.2915597 9.1876845,11.2432908 10.4567839,11.2432908 L20.8665328,11.2432908 C22.1356323,11.2432908 23.1634461,12.2915597 23.1634461,13.585916 L23.1634461,24.490469 Z M17.234715,-3.19594166e-05 C0.131641647,-3.19594166e-05 3.13357884e-05,7.86837641 3.13357884e-05,17.5776472 C3.13357884e-05,27.2869179 0.131641647,35.1553263 17.234715,35.1553263 C34.3377883,35.1553263 34.4693986,27.2869179 34.4693986,17.5776472 C34.4693986,7.86837641 34.3377883,-3.19594166e-05 17.234715,-3.19594166e-05 L17.234715,-3.19594166e-05 Z" id="Fill-14" fill="#FFFFFF" mask="url(#mask-4)"></path>
                            </g>
                        </g>
                    </g>
                </g>
            </g>
        </g>
    </g>
</svg>